<svg xmlns="http://www.w3.org/2000/svg" width="23.904" height="23.629" viewBox="0 0 23.904 23.629">
  <g id="Grupo_1" data-name="Grupo 1" transform="translate(-10.256 -3.409)">
    <g id="Grupo_126" data-name="Grupo 126" transform="translate(10.256 3.409)">
      <g id="Grupo_125" data-name="Grupo 125">
        <path id="Caminho_479" data-name="Caminho 479" d="M24.512,15.459c-.02.09-.039.186-.053.294-.747,5.466-6.422,9.152-11.535,7.421a8.719,8.719,0,0,1-6.262-7.248,8.667,8.667,0,0,1,3.8-8.676,7.258,7.258,0,0,1,3.953-1.591V2.782A11.959,11.959,0,0,0,3.754,14.7a12,12,0,0,0,9.217,11.458,11.992,11.992,0,0,0,13.323-6.7,10.459,10.459,0,0,0,1.046-3.944v-.056Z" transform="translate(-3.754 -2.782)" fill="#008898"/>
      </g>
    </g>
    <path id="Caminho_480" data-name="Caminho 480" d="M31.453,14.119H20.237v.022h-.1a5.68,5.68,0,0,0-4.811,3.917,5.51,5.51,0,0,0,1.5,5.868,5.875,5.875,0,0,0,7.815.282,5.109,5.109,0,0,0,1.766-3.534H23.384a4.972,4.972,0,0,1-1.2,1.772,2.311,2.311,0,0,1-1.156.477A3.044,3.044,0,0,1,17.8,18.89a2.857,2.857,0,0,1,1.094-1.428,3.936,3.936,0,0,1,2.048-.56H31.453a1.391,1.391,0,1,0,0-2.782Z" transform="translate(1.316 -4.589)" fill="#008898"/>
  </g>
</svg>
