<svg xmlns="http://www.w3.org/2000/svg" width="230.047" height="78.792" viewBox="0 0 230.047 78.792">
  <g id="Marca" transform="translate(-147.456 -49.012)">
    <g id="Grupo_121" data-name="Grupo 121" transform="translate(247.476 56.591)">
      <path id="Caminho_462" data-name="Caminho 462" d="M886.716,135.372H868.028q-3.408,0-3.407-4.245V114.036a3.39,3.39,0,0,1,.838-2.374,2.939,2.939,0,0,1,2.29-.922H888.3l-.453-10.221H864.621q-7.318,0-10.109,3.407-1.9,2.29-1.9,6.814v23.068q0,5.642,3.8,8.713a12.586,12.586,0,0,0,8.211,2.681h22.53Z" transform="translate(-852.612 -100.519)" fill="#fff"/>
    </g>
    <g id="Grupo_122" data-name="Grupo 122" transform="translate(337.496 56.591)">
      <path id="Caminho_463" data-name="Caminho 463" d="M1610.96,135.372h-24.155q-3.408,0-3.407-4.245V114.036a3.392,3.392,0,0,1,.838-2.374,2.941,2.941,0,0,1,2.291-.922h24.025l-.453-10.221h-26.7q-7.317,0-10.11,3.407-1.9,2.29-1.9,6.814v23.068q0,5.642,3.8,8.713a12.586,12.586,0,0,0,8.21,2.681h28Z" transform="translate(-1571.389 -100.519)" fill="#fff"/>
    </g>
    <g id="Grupo_123" data-name="Grupo 123" transform="translate(289.54 56.591)">
      <path id="Caminho_464" data-name="Caminho 464" d="M1231.319,124.141q0,10.222-11.45,10.221h-19.381V145.2h-12.01V100.515h31.39q11.45,0,11.45,10.221Zm-12.008-3.015V114.87q0-4.133-3.686-4.133h-15.136v14.522h15.136Q1219.311,125.259,1219.311,121.126Z" transform="translate(-1188.479 -100.515)" fill="#fff"/>
    </g>
    <g id="Grupo_124" data-name="Grupo 124" transform="translate(249.952 111.537)">
      <path id="Caminho_465" data-name="Caminho 465" d="M872.383,541.957a8.7,8.7,0,0,1,1.647-.145,2.888,2.888,0,0,1,1.917.508,1.462,1.462,0,0,1,.58,1.233,1.656,1.656,0,0,1-1.18,1.532v.022a1.8,1.8,0,0,1,1.439,1.75,1.877,1.877,0,0,1-.591,1.4,3.5,3.5,0,0,1-2.414.654,10.6,10.6,0,0,1-1.4-.083Zm.9,2.86h.817c.954,0,1.513-.5,1.513-1.171,0-.819-.621-1.139-1.534-1.139a3.864,3.864,0,0,0-.8.061Zm0,3.347a4.769,4.769,0,0,0,.756.041c.932,0,1.793-.341,1.793-1.358,0-.952-.819-1.347-1.8-1.347h-.745Z" transform="translate(-872.383 -541.49)" fill="#fff"/>
      <path id="Caminho_466" data-name="Caminho 466" d="M953.387,558.708c0-.591-.009-1.1-.041-1.563h.8l.031.984h.042a1.5,1.5,0,0,1,1.388-1.1,1,1,0,0,1,.259.031v.86a1.387,1.387,0,0,0-.311-.031,1.279,1.279,0,0,0-1.222,1.171,2.623,2.623,0,0,0-.041.426v2.673h-.9Z" transform="translate(-943.206 -554.802)" fill="#fff"/>
      <path id="Caminho_467" data-name="Caminho 467" d="M1017.053,562.159l-.072-.632h-.031a1.87,1.87,0,0,1-1.534.746,1.429,1.429,0,0,1-1.534-1.441c0-1.211,1.078-1.875,3.015-1.865v-.1a1.033,1.033,0,0,0-1.139-1.16,2.5,2.5,0,0,0-1.306.372l-.208-.6a3.1,3.1,0,0,1,1.647-.446c1.534,0,1.906,1.047,1.906,2.052v1.875a7.158,7.158,0,0,0,.083,1.2Zm-.135-2.56c-.995-.02-2.124.156-2.124,1.13a.808.808,0,0,0,.861.87,1.247,1.247,0,0,0,1.211-.839.935.935,0,0,0,.052-.291Z" transform="translate(-996.161 -554.802)" fill="#fff"/>
      <path id="Caminho_468" data-name="Caminho 468" d="M1091.02,561.227a2.39,2.39,0,0,0,1.2.361c.663,0,.974-.332.974-.745,0-.435-.259-.674-.933-.922-.9-.322-1.326-.819-1.326-1.421a1.547,1.547,0,0,1,1.73-1.471,2.5,2.5,0,0,1,1.233.311l-.228.663a1.952,1.952,0,0,0-1.026-.291c-.539,0-.839.311-.839.683,0,.415.3.6.954.85.87.332,1.315.767,1.315,1.513,0,.88-.684,1.5-1.875,1.5a2.855,2.855,0,0,1-1.409-.343Z" transform="translate(-1063.439 -554.802)" fill="#fff"/>
      <path id="Caminho_469" data-name="Caminho 469" d="M1163.286,542.708a.565.565,0,0,1-1.13,0,.556.556,0,0,1,.57-.57A.542.542,0,0,1,1163.286,542.708Zm-1.015,6.424v-5.014h.911v5.014Z" transform="translate(-1125.865 -541.775)" fill="#fff"/>
      <path id="Caminho_470" data-name="Caminho 470" d="M1219.142,539.24h.911V546.6h-.911Z" transform="translate(-1175.714 -539.24)" fill="#fff"/>
      <path id="Caminho_471" data-name="Caminho 471" d="M1327.295,547.309a3.2,3.2,0,0,0,1.615.456c.922,0,1.461-.487,1.461-1.191,0-.654-.372-1.026-1.315-1.389-1.141-.4-1.845-.995-1.845-1.978a2.011,2.011,0,0,1,2.258-1.9,3.179,3.179,0,0,1,1.545.343l-.249.735a2.782,2.782,0,0,0-1.326-.332c-.954,0-1.317.57-1.317,1.047,0,.652.426.974,1.389,1.347,1.182.456,1.782,1.026,1.782,2.052,0,1.078-.8,2.01-2.445,2.01a3.591,3.591,0,0,1-1.782-.446Z" transform="translate(-1270.122 -541.051)" fill="#fff"/>
      <path id="Caminho_472" data-name="Caminho 472" d="M1407.338,542.708a.564.564,0,0,1-1.128,0,.555.555,0,0,1,.569-.57A.54.54,0,0,1,1407.338,542.708Zm-1.015,6.424v-5.014h.911v5.014Z" transform="translate(-1339.353 -541.775)" fill="#fff"/>
      <path id="Caminho_473" data-name="Caminho 473" d="M1460.6,561.227a2.39,2.39,0,0,0,1.2.361c.663,0,.974-.332.974-.745,0-.435-.259-.674-.933-.922-.9-.322-1.326-.819-1.326-1.421a1.547,1.547,0,0,1,1.73-1.471,2.5,2.5,0,0,1,1.234.311l-.228.663a1.952,1.952,0,0,0-1.026-.291c-.539,0-.839.311-.839.683,0,.415.3.6.954.85.871.332,1.315.767,1.315,1.513,0,.88-.684,1.5-1.875,1.5a2.856,2.856,0,0,1-1.41-.343Z" transform="translate(-1386.733 -554.802)" fill="#fff"/>
      <path id="Caminho_474" data-name="Caminho 474" d="M1529.768,546.441v1.441h1.306v.693h-1.306v2.7c0,.622.176.974.684.974a2.1,2.1,0,0,0,.529-.061l.041.684a2.236,2.236,0,0,1-.808.124,1.266,1.266,0,0,1-.985-.383,1.857,1.857,0,0,1-.352-1.306v-2.736h-.778v-.693h.778v-1.2Z" transform="translate(-1445.977 -545.539)" fill="#fff"/>
      <path id="Caminho_475" data-name="Caminho 475" d="M1594.224,559.818a1.607,1.607,0,0,0,1.719,1.741,3.308,3.308,0,0,0,1.389-.259l.156.652a4.077,4.077,0,0,1-1.669.311,2.329,2.329,0,0,1-2.465-2.528,2.434,2.434,0,0,1,2.352-2.7,2.125,2.125,0,0,1,2.071,2.362,3.737,3.737,0,0,1-.03.426Zm2.673-.654a1.3,1.3,0,0,0-1.265-1.482,1.512,1.512,0,0,0-1.4,1.482Z" transform="translate(-1503.059 -554.802)" fill="#fff"/>
      <path id="Caminho_476" data-name="Caminho 476" d="M1674.106,558.5c0-.517-.011-.943-.042-1.356h.8l.041.808h.031a1.73,1.73,0,0,1,1.574-.922,1.484,1.484,0,0,1,1.421,1.006h.02a2.07,2.07,0,0,1,.559-.654,1.711,1.711,0,0,1,1.108-.352c.663,0,1.648.435,1.648,2.176v2.953h-.891V559.32c0-.963-.352-1.543-1.089-1.543a1.181,1.181,0,0,0-1.076.828,1.472,1.472,0,0,0-.072.456v3.1h-.891v-3c0-.8-.354-1.378-1.047-1.378a1.245,1.245,0,0,0-1.13.911,1.26,1.26,0,0,0-.072.446v3.025h-.891Z" transform="translate(-1573.661 -554.802)" fill="#fff"/>
      <path id="Caminho_477" data-name="Caminho 477" d="M1780.116,562.159l-.072-.632h-.031a1.871,1.871,0,0,1-1.534.746,1.429,1.429,0,0,1-1.534-1.441c0-1.211,1.078-1.875,3.015-1.865v-.1a1.033,1.033,0,0,0-1.139-1.16,2.5,2.5,0,0,0-1.306.372l-.207-.6a3.1,3.1,0,0,1,1.647-.446c1.534,0,1.906,1.047,1.906,2.052v1.875a7.158,7.158,0,0,0,.083,1.2Zm-.135-2.56c-.995-.02-2.125.156-2.125,1.13a.808.808,0,0,0,.861.87,1.247,1.247,0,0,0,1.212-.839.942.942,0,0,0,.052-.291Z" transform="translate(-1663.658 -554.802)" fill="#fff"/>
      <path id="Caminho_478" data-name="Caminho 478" d="M1854.083,561.227a2.391,2.391,0,0,0,1.2.361c.663,0,.974-.332.974-.745,0-.435-.259-.674-.933-.922-.9-.322-1.326-.819-1.326-1.421a1.547,1.547,0,0,1,1.73-1.471,2.5,2.5,0,0,1,1.233.311l-.228.663a1.952,1.952,0,0,0-1.026-.291c-.539,0-.839.311-.839.683,0,.415.3.6.954.85.87.332,1.315.767,1.315,1.513,0,.88-.683,1.5-1.875,1.5a2.856,2.856,0,0,1-1.409-.343Z" transform="translate(-1730.935 -554.802)" fill="#fff"/>
    </g>
    <g id="Grupo_126" data-name="Grupo 126" transform="translate(147.456 49.012)">
      <g id="Grupo_125" data-name="Grupo 125" transform="translate(0 0)">
        <path id="Caminho_479" data-name="Caminho 479" d="M123.2,82.273c-.068.3-.129.62-.178.982C120.53,101.482,101.608,113.773,84.557,108c-11.411-3.863-19.113-11.975-20.881-24.17C61.943,71.868,66.523,62.025,76.337,54.9c3.915-2.842,8.22-5.108,13.182-5.306V40A39.88,39.88,0,0,0,53.982,79.742c-.017,17.832,13.474,34.6,30.734,38.209a39.989,39.989,0,0,0,44.426-22.339A34.878,34.878,0,0,0,132.63,82.46c0-.068,0-.126,0-.188Z" transform="translate(-53.982 -40.001)" fill="#008898"/>
      </g>
    </g>
    <g id="Grupo_128" data-name="Grupo 128" transform="translate(167.753 69.427)">
      <g id="Grupo_127" data-name="Grupo 127" transform="translate(0 0)">
        <path id="Caminho_480" data-name="Caminho 480" d="M270.824,203h-37.4v.073c-.11,0-.22,0-.33,0-6.764.162-13.678,5.922-16.044,13.061a18.373,18.373,0,0,0,5,19.569,19.592,19.592,0,0,0,26.061.941A17.038,17.038,0,0,0,254,224.861H243.919a16.581,16.581,0,0,1-4,5.908,7.707,7.707,0,0,1-3.855,1.59A10.152,10.152,0,0,1,225.29,218.91a9.526,9.526,0,0,1,3.649-4.762,13.124,13.124,0,0,1,6.83-1.868h35.056a4.638,4.638,0,0,0,0-9.276Z" transform="translate(-216.048 -203.004)" fill="#008898"/>
      </g>
    </g>
  </g>
</svg>
